<?xml version="1.0" encoding="UTF-8"?>
<!--
  SPDX-FileCopyrightText: 2026 [ernolf] Raphael Gradenwitz
  SPDX-License-Identifier: GPL-3.0-or-later
-->
<svg xmlns="http://www.w3.org/2000/svg" viewBox="0 0 200 200">
  <defs>
    <linearGradient id="g" x1="10" y1="10" x2="190" y2="190" gradientUnits="userSpaceOnUse">
      <stop offset="0%"   stop-color="#a855f7"/>
      <stop offset="40%"  stop-color="#60a5fa"/>
      <stop offset="75%"  stop-color="#38bdf8"/>
      <stop offset="100%" stop-color="#34d399"/>
    </linearGradient>
  </defs>

  <!-- Hexagon edges -->
  <polygon
    points="100,24 166,62 166,138 100,176 34,138 34,62"
    fill="none"
    stroke="url(#g)"
    stroke-width="5.5"
    stroke-linejoin="round"/>

  <!-- Cluster nodes -->
  <circle cx="100" cy="24"  r="10" fill="none" stroke="url(#g)" stroke-width="5.5"/>
  <circle cx="166" cy="62"  r="10" fill="none" stroke="url(#g)" stroke-width="5.5"/>
  <circle cx="166" cy="138" r="10" fill="none" stroke="url(#g)" stroke-width="5.5"/>
  <circle cx="100" cy="176" r="10" fill="none" stroke="url(#g)" stroke-width="5.5"/>
  <circle cx="34"  cy="138" r="10" fill="none" stroke="url(#g)" stroke-width="5.5"/>
  <circle cx="34"  cy="62"  r="10" fill="none" stroke="url(#g)" stroke-width="5.5"/>

  <!-- DNS sine waves -->
  <path d="M 68 88  C 75 88  77 80  84 80  C 91 80  93 88  100 88
           C 107 88 109 96 116 96  C 123 96 125 88 132 88"
        fill="none" stroke="url(#g)" stroke-width="4.5" stroke-linecap="round"/>
  <path d="M 68 100 C 75 100 77 92  84 92  C 91 92  93 100 100 100
           C 107 100 109 108 116 108 C 123 108 125 100 132 100"
        fill="none" stroke="url(#g)" stroke-width="4.5" stroke-linecap="round"/>
  <path d="M 68 112 C 75 112 77 104 84 104 C 91 104 93 112 100 112
           C 107 112 109 120 116 120 C 123 120 125 112 132 112"
        fill="none" stroke="url(#g)" stroke-width="4.5" stroke-linecap="round"/>
</svg>
